<?xml version="1.0" standalone="no"?>
<!DOCTYPE svg PUBLIC "-//W3C//DTD SVG 20010904//EN"
 "http://www.w3.org/TR/2001/REC-SVG-20010904/DTD/svg10.dtd">
<svg version="1.0" xmlns="http://www.w3.org/2000/svg"
 width="384.000000pt" height="386.000000pt" viewBox="0 0 384.000000 386.000000"
 preserveAspectRatio="xMidYMid meet">

<g transform="translate(0.000000,386.000000) scale(0.100000,-0.100000)"
fill="#000000" stroke="none">
<path d="M1895 3382 c-6 -5 -29 -14 -53 -21 -24 -7 -69 -30 -102 -52 -62 -43
-80 -74 -80 -135 0 -29 -4 -34 -22 -34 -32 0 -118 -27 -136 -42 -8 -7 -47 -29
-86 -49 -60 -30 -77 -45 -111 -95 -22 -33 -64 -89 -92 -124 -61 -74 -97 -144
-119 -226 -8 -32 -19 -63 -25 -70 -6 -7 -12 -79 -15 -161 -6 -178 -11 -213
-28 -213 -20 0 -48 -48 -43 -73 3 -19 4 -18 12 8 10 37 23 55 41 55 18 0 18
-18 -1 -54 -8 -15 -15 -41 -15 -56 0 -31 -19 -90 -29 -90 -4 0 -13 -21 -20
-46 -8 -25 -22 -51 -32 -57 -16 -10 -19 -24 -19 -88 0 -68 2 -77 20 -82 11 -3
20 -14 20 -24 0 -10 16 -45 36 -76 28 -45 41 -57 58 -55 17 2 21 9 19 33 -2
23 3 33 20 40 34 15 28 39 -10 43 -18 2 -33 6 -33 10 0 12 61 35 70 26 17 -17
60 -112 60 -131 0 -11 11 -41 24 -67 13 -27 27 -60 31 -74 13 -53 212 -263
324 -342 20 -14 65 -38 101 -54 36 -16 73 -33 83 -38 27 -13 136 -13 150 1 6
6 21 11 34 11 13 0 32 5 42 12 22 14 49 5 58 -19 31 -91 61 -139 122 -194 36
-33 89 -71 117 -84 31 -15 64 -41 84 -67 100 -131 245 -183 387 -140 37 12 85
33 105 47 26 18 50 25 82 25 70 0 145 33 206 92 110 105 152 173 121 193 -6 3
-51 1 -102 -6 -58 -7 -95 -7 -101 -1 -6 6 -3 28 7 60 13 39 14 55 5 71 -14 27
-21 27 -73 -9 -25 -16 -49 -30 -55 -30 -11 0 -23 56 -23 105 -1 68 14 100 79
170 35 39 72 81 81 95 9 14 30 44 47 67 18 23 38 59 44 80 7 21 16 42 21 47
16 18 10 141 -10 197 -21 63 -57 137 -77 159 -7 8 -32 53 -56 100 -60 120 -64
156 -56 495 3 139 1 155 -21 215 -13 36 -33 74 -43 86 -10 11 -18 28 -18 37 0
9 -9 22 -20 29 -13 8 -20 24 -20 44 0 59 -34 148 -97 257 -17 29 -151 167
-162 167 -6 0 -27 12 -48 26 -39 27 -53 33 -138 65 -57 22 -151 25 -192 7 -15
-7 -43 -23 -62 -35 -45 -30 -57 -29 -125 12 -57 34 -119 46 -141 27z m-32
-668 c110 -6 122 -9 198 -45 74 -36 186 -113 217 -149 20 -24 72 -128 72 -145
0 -13 -8 -15 -42 -10 -38 6 -152 -6 -200 -21 -10 -3 -18 -12 -18 -21 0 -13 8
-15 48 -9 111 16 169 18 210 7 42 -12 45 -15 93 -114 26 -56 62 -125 78 -152
36 -61 40 -118 17 -247 -21 -119 -25 -132 -58 -217 -52 -130 -107 -227 -174
-305 -35 -41 -64 -80 -64 -86 0 -5 -3 -9 -7 -9 -22 4 -38 -6 -96 -61 -90 -84
-194 -131 -302 -137 -78 -5 -82 -4 -160 36 -112 57 -271 211 -347 336 -59 99
-113 220 -122 275 -3 19 -14 73 -25 120 -27 112 -26 141 6 203 15 29 29 72 32
97 l6 45 22 -37 c12 -21 28 -38 36 -38 7 0 26 14 43 31 31 33 82 64 91 55 3
-3 -2 -21 -11 -41 -29 -60 -13 -86 63 -107 104 -28 161 -13 161 43 0 16 3 29
8 29 4 0 24 -19 44 -42 20 -24 40 -40 44 -35 11 11 -20 71 -63 118 -56 62
-121 89 -214 89 -75 0 -95 -6 -150 -43 -35 -24 -62 -13 -54 22 3 14 12 64 19
111 17 102 48 174 110 256 76 102 268 219 341 209 17 -2 83 -7 148 -11z m-365
-630 c4 -29 -23 -51 -43 -34 -16 13 -20 42 -8 54 14 14 48 1 51 -20z m1117
-373 c8 -51 -4 -131 -20 -131 -30 0 -35 26 -19 99 9 39 20 71 24 71 5 0 11
-18 15 -39z m-15 -213 c0 -13 -6 -18 -16 -16 -23 4 -39 32 -30 53 6 17 7 17
26 0 11 -10 20 -27 20 -37z"/>
<path d="M1375 2381 c-41 -18 -72 -47 -62 -57 2 -3 22 4 43 15 46 25 163 28
261 8 105 -22 115 11 12 38 -77 21 -204 19 -254 -4z"/>
<path d="M2135 2082 c-56 -33 -135 -113 -135 -137 0 -24 14 -18 53 25 43 48
59 51 50 9 -3 -17 0 -40 7 -55 11 -20 21 -24 61 -24 58 0 151 20 161 34 11 16
10 64 -2 86 -6 11 -6 21 -1 24 13 8 69 -40 87 -75 18 -36 36 -37 63 -3 28 35
26 52 -4 64 -14 5 -28 17 -32 26 -11 29 -57 42 -178 50 -75 5 -83 3 -130 -24z
m63 -54 c-3 -24 -25 -33 -46 -20 -20 13 -3 42 25 42 20 0 24 -4 21 -22z"/>
<path d="M2425 1800 c-7 -12 12 -40 27 -40 13 0 6 43 -9 47 -6 2 -14 -1 -18
-7z"/>
<path d="M1720 1675 c0 -70 124 -121 199 -82 26 13 68 74 58 84 -4 3 -20 -9
-37 -26 -27 -26 -39 -31 -81 -31 -58 0 -85 11 -116 48 -21 25 -23 25 -23 7z"/>
<path d="M1490 1535 c0 -32 50 -112 97 -156 66 -61 119 -92 172 -100 26 -4 67
-10 92 -14 66 -10 144 15 218 71 67 50 111 106 111 140 0 20 -6 22 -117 26
-65 3 -142 1 -172 -4 -42 -7 -67 -6 -110 6 -41 11 -250 45 -288 46 -2 0 -3 -7
-3 -15z m378 -71 c166 -10 155 -27 -14 -22 -97 4 -151 10 -179 22 l-40 16 60
-5 c33 -3 111 -8 173 -11z"/>
<path d="M1960 1229 c-40 -21 -49 -28 -32 -29 24 0 102 40 102 53 0 10 -8 7
-70 -24z"/>
<path d="M1680 1245 c0 -8 61 -37 67 -31 3 2 -9 12 -26 20 -31 17 -41 19 -41
11z"/>
</g>
</svg>
